<?xml version="1.0" encoding="UTF-8"?>
<svg id="b" data-name="Layer 2" xmlns="http://www.w3.org/2000/svg" width="40" height="35.693" viewBox="0 0 40 35.693">
  <g id="c" data-name="Core Icons">
    <path d="m39.463,29.745L23.435,1.983c-1.526-2.644-5.343-2.644-6.869,0L.537,29.745c-1.526,2.644.382,5.949,3.435,5.949h32.056c3.053,0,4.961-3.305,3.435-5.949Zm-19.463,2.25c-1.657,0-3-1.343-3-3s1.343-3,3-3,3,1.343,3,3-1.343,3-3,3Zm1.983-8.832c-.087,1.024-.936,1.832-1.983,1.832s-1.896-.807-1.983-1.832c0,0-1.017-13.005-1.017-13.168,0-1.657,1.343-3,3-3s3,1.343,3,3c0,.163-1.017,13.168-1.017,13.168Z" fill="#082f44" stroke-width="0"/>
  </g>
</svg>