<?xml version="1.0" encoding="UTF-8"?>
<svg id="b" data-name="Layer 2" xmlns="http://www.w3.org/2000/svg" width="40" height="35.693" viewBox="0 0 40 35.693">
  <g id="c" data-name="Core Icons">
    <path d="m16.565,1.983L.537,29.745c-1.526,2.644.382,5.949,3.435,5.949h32.056c3.053,0,4.961-3.305,3.435-5.949L23.435,1.983c-1.526-2.644-5.343-2.644-6.869,0Z" fill="#ececec" stroke-width="0"/>
    <path d="m20,1.983c.344,0,1.201.097,1.717.991l16.028,27.762c.517.895.172,1.685,0,1.983-.172.298-.684.991-1.717.991H3.972c-1.033,0-1.545-.693-1.717-.991-.172-.298-.517-1.088,0-1.983L18.283,2.974c.517-.895,1.373-.991,1.717-.991M20,0C18.664,0,17.329.661,16.565,1.983L.537,29.745c-1.526,2.644.382,5.949,3.435,5.949h32.056c3.053,0,4.961-3.305,3.435-5.949L23.435,1.983C22.671.661,21.336,0,20,0h0Z" fill="#a9a9a9" stroke-width="0"/>
    <circle cx="20" cy="28.995" r="3" fill="#a9a9a9" stroke-width="0"/>
    <path d="m23,9.995c0-1.657-1.343-3-3-3s-3,1.343-3,3c0,.163,1.017,13.168,1.017,13.168.087,1.024.936,1.832,1.983,1.832s1.896-.807,1.983-1.832c0,0,1.017-13.005,1.017-13.168Z" fill="#a9a9a9" stroke-width="0"/>
  </g>
</svg>