<?xml version="1.0" encoding="UTF-8"?>
<svg id="b" data-name="Layer 2" xmlns="http://www.w3.org/2000/svg" width="40" height="40" viewBox="0 0 40 40">
  <g id="c" data-name="Core Icons">
    <path d="m20,0C8.954,0,0,8.954,0,20s8.954,20,20,20,20-8.954,20-20S31.046,0,20,0Zm11.218,12.874l-12.411,16.962c-.39.534-.992.873-1.651.931-.067.006-.134.009-.201.009-.588,0-1.158-.226-1.586-.637l-6.321-6.05c-.915-.876-.947-2.329-.071-3.244.876-.916,2.329-.947,3.244-.071l4.429,4.24,10.865-14.849c.748-1.023,2.184-1.245,3.207-.497,1.023.748,1.245,2.184.497,3.207Z" fill="#082f44" stroke-width="0"/>
  </g>
</svg>