<?xml version="1.0" encoding="utf-8"?>
<!-- Generator: Adobe Illustrator 27.3.1, SVG Export Plug-In . SVG Version: 6.00 Build 0)  -->
<svg version="1.1" id="Layer_1" xmlns="http://www.w3.org/2000/svg" xmlns:xlink="http://www.w3.org/1999/xlink" x="0px" y="0px"
	 viewBox="0 0 40 40" style="enable-background:new 0 0 40 40;" xml:space="preserve">
<style type="text/css">
	.st0{fill:#231F20;}
</style>
<g id="a">
</g>
<g id="b">
	<g id="c">
		<path class="st0" d="M39.5,31.9l-16-27.8c-1.5-2.6-5.3-2.6-6.9,0l-16,27.8C-1,34.5,0.9,37.8,4,37.8H36
			C39.1,37.8,41,34.5,39.5,31.9z M20,34.1c-1.7,0-3-1.3-3-3c0-1.7,1.3-3,3-3s3,1.3,3,3C23,32.8,21.7,34.1,20,34.1z M22,25.3
			c-0.1,1-0.9,1.8-2,1.8s-1.9-0.8-2-1.8c0,0-1-13-1-13.2c0-1.7,1.3-3,3-3s3,1.3,3,3C23,12.3,22,25.3,22,25.3z"/>
	</g>
</g>
</svg>
