<?xml version="1.0" encoding="UTF-8"?>
<svg id="b" data-name="Layer 2" xmlns="http://www.w3.org/2000/svg" width="40" height="40" viewBox="0 0 40 40">
  <g id="c" data-name="Outlined">
    <polygon points="37 17 34 17 34 14 32 14 32 17 29 17 29 19 32 19 32 22 34 22 34 19 37 19 37 17" fill="#2fc61e" stroke-width="0"/>
    <path d="m38.191,15c.512.883.809,1.906.809,3,0,2.088-1.068,3.925-2.686,5h.686v3h-5v-2.09c-.718-.121-1.392-.367-2-.719v2.809h-5v-3h4.686c-.77-.512-1.412-1.198-1.877-2h-2.809v-3h2c0-1.094.298-2.117.809-3h-5.28c-.321,1.076-.797,2.086-1.407,3h1.878v3h-4.825c-1.215.844-2.6,1.458-4.097,1.768l-.077,17.232h11v-7h5v7h10V15h-1.809Zm-15.191,22h-6v-4h6v4Zm0-6h-6v-3h6v3Zm0-5h-6v-3h6v3Zm7,5h-5v-3h5v3Zm7,6h-5.086l.086-4h5.086l-.086,4Zm.086-6h-5.086v-3h5.086v3Z" fill="#2fc61e" stroke-width="0"/>
    <path d="m30.02,11.524v-4.754h-8.246c.33.647.597,1.328.798,2.039h5.409v2.715h-1.457l2.477,2.476,2.477-2.476h-1.457Z" fill="#082f44" stroke-width="0"/>
    <path d="m11.806,1.612c-.974,0-1.914.145-2.806.4v1.628c2.622-.901,5.631-.523,8.007,1.276,3.793,2.872,4.539,8.275,1.667,12.067-.518.684-1.136,1.288-1.833,1.789-.306-2.977-1.983-5.352-4.149-5.907,1.896-.536,2.999-2.508,2.462-4.404s-2.508-2.999-4.404-2.462-2.999,2.508-2.462,4.404c.337,1.193,1.27,2.125,2.462,2.462-2.136.545-3.802,2.87-4.144,5.785-3.04-2.302-4.117-6.229-2.948-9.651h-1.647c-.255.892-.4,1.831-.4,2.806,0,5.63,4.564,10.194,10.194,10.194s10.194-4.564,10.194-10.194c-.017-5.623-4.571-10.177-10.194-10.194Z" fill="#2fc61e" stroke-width="0"/>
    <polygon points="8 3 5 3 5 0 3 0 3 3 0 3 0 5 3 5 3 8 5 8 5 5 8 5 8 3" fill="#2fc61e" stroke-width="0"/>
  </g>
</svg>