<?xml version="1.0" encoding="UTF-8"?>
<svg id="b" data-name="Layer 2" xmlns="http://www.w3.org/2000/svg" width="34" height="34" viewBox="0 0 34 34">
  <g id="c" data-name="Outlined">
    <g>
      <path d="m5.551,25.62c-3.783-5-3.973-12.084-.001-17.329C10.338,1.969,19.341.724,25.666,5.506l1.833-1.833C24.608,1.389,20.968.012,17,0,7.611,0,0,7.611,0,17c0,3.973,1.374,7.619,3.658,10.514l1.894-1.894Z" fill="#ed1c24" stroke-width="0"/>
      <path d="m28.483,8.345c3.755,4.998,3.932,12.059-.029,17.29-.864,1.141-1.894,2.147-3.056,2.984-.51-4.964-3.307-8.925-6.919-9.852,2.252-.637,3.826-2.49,4.226-4.645L6.486,30.342c2.894,2.284,6.541,3.658,10.514,3.658,9.389,0,17-7.611,17-17-.012-3.968-1.389-7.608-3.672-10.499l-1.844,1.844Z" fill="#ed1c24" stroke-width="0"/>
      <path d="m15.24,7.317c-3.162.894-5,4.183-4.106,7.345.366,1.293,1.155,2.396,2.206,3.169l8.309-8.309c-1.428-1.941-3.954-2.899-6.409-2.205Z" fill="#ed1c24" stroke-width="0"/>
    </g>
    <rect x="-5.5" y="16" width="45" height="2" transform="translate(-7.042 17) rotate(-45)" fill="#ed1c24" stroke-width="0"/>
  </g>
</svg>