<?xml version="1.0" encoding="UTF-8"?><svg id="Layer_2" xmlns="http://www.w3.org/2000/svg" viewBox="0 0 160.98 126"><defs><style>.cls-1,.cls-2,.cls-3{fill:none;}.cls-4{stroke-width:9.65px;}.cls-4,.cls-5{fill:#fff;}.cls-4,.cls-5,.cls-6,.cls-7,.cls-2,.cls-3{stroke-linecap:round;}.cls-4,.cls-5,.cls-6,.cls-7,.cls-2,.cls-3,.cls-8{stroke-linejoin:round;}.cls-4,.cls-5,.cls-2{stroke:#fff;}.cls-5,.cls-2{stroke-width:3.22px;}.cls-9{fill:#2fc61e;}.cls-6{fill:#d8d3ce;stroke:#a09892;}.cls-6,.cls-7,.cls-3,.cls-8{stroke-width:2px;}.cls-7{fill:#a09892;stroke:#665e56;}.cls-3{stroke:#655e56;}.cls-8{fill:#8ec1f2;stroke:#4c9dea;}</style></defs><g id="Layer_1-2"><rect class="cls-1" width="160.98" height="126"/><g><g><polyline class="cls-6" points="80.49 108.05 80.49 87.63 98.78 87.63 98.78 108.05"/><polyline class="cls-6" points="98.78 108.05 98.78 75.27 117.07 75.27 117.07 108.05"/><polyline class="cls-7" points="117.07 108.05 117.07 62.91 135.35 62.91 135.35 108.05"/></g><g><line class="cls-3" x1="32.44" y1="108.59" x2="142.64" y2="108.59"/><g><g><path class="cls-5" d="m53.53,27.08c-4.42,0-8.02-3.6-8.02-8.03s3.6-8.03,8.02-8.03,8.02,3.6,8.02,8.03-3.6,8.03-8.02,8.03Z"/><path class="cls-5" d="m66.9,41.54l-4.82,64.7c-.09,1.3-1.2,2.35-2.46,2.35h-12.19c-1.26,0-2.36-1.05-2.46-2.35l-2.43-32.87c-.13-.01-.27-.03-.42-.05-3.19-.47-7.61-3.03-7.87-5.95l-1.81-24.26c-.01-.2,0-.34,0-.42,0-4.84,3.81-8.86,8.49-8.97h55.54c0,4.32-3.5,7.83-7.83,7.83h-21.75"/></g><g><path class="cls-8" d="m53.53,27.08c-4.42,0-8.02-3.6-8.02-8.03s3.6-8.03,8.02-8.03,8.02,3.6,8.02,8.03-3.6,8.03-8.02,8.03Z"/><path class="cls-8" d="m66.9,41.54h21.75c4.32,0,7.83-3.5,7.83-7.83h-55.54c-4.68.12-8.49,4.13-8.49,8.97,0,.08,0,.22,0,.42l1.81,24.26c.26,2.92,4.69,5.48,7.87,5.95.15.02.28.04.42.05l2.43,32.87c.1,1.3,1.2,2.35,2.46,2.35h12.19c1.26,0,2.36-1.05,2.46-2.35l4.82-64.7Z"/></g><line class="cls-8" x1="53.52" y1="71.06" x2="53.52" y2="107.55"/><line class="cls-8" x1="42.54" y1="73.37" x2="40.51" y2="45.95"/></g></g></g><g><g><path class="cls-4" d="m145.33,33.4c0,11.3-9.16,20.47-20.47,20.47s-20.47-9.16-20.47-20.47,9.16-20.47,20.47-20.47,20.47,9.16,20.47,20.47Z"/><path class="cls-9" d="m145.33,33.4c0,11.3-9.16,20.47-20.47,20.47s-20.47-9.16-20.47-20.47,9.16-20.47,20.47-20.47,20.47,9.16,20.47,20.47Z"/></g><g><path class="cls-2" d="m130.88,28.16c-1.97-5.25-10.86-4.63-10.92.84-.03,2.45,2.84,3.57,5.24,3.95,8.74,1.38,6.33,9.6,0,9.29-4.8-.24-6.19-3.48-6.33-4.26"/><line class="cls-2" x1="125.29" y1="20.14" x2="125.29" y2="24.55"/><line class="cls-2" x1="125.29" y1="42.26" x2="125.29" y2="46.66"/></g></g></g></svg>