<svg xmlns="http://www.w3.org/2000/svg" viewBox="0 0 40 40"><g id="Layer_2" data-name="Layer 2"><g id="Layer_1-2" data-name="Layer 1"><path d="M20,0A20,20,0,1,0,40,20,20,20,0,0,0,20,0Z" style="fill:#ececec"/><path d="M31,12V11H29V8L28,7H12L11,8v3H9v1H7v4H33V12ZM13,9H27v2H13Z" style="fill:#a9a9a9"/><path d="M10,18V30.32A1.68,1.68,0,0,0,11.68,32H28.32A1.68,1.68,0,0,0,30,30.32V18Zm5,11a1,1,0,0,1-2,0V21a1,1,0,0,1,2,0Zm4,0a1,1,0,0,1-2,0V21a1,1,0,0,1,2,0Zm4,0a1,1,0,0,1-2,0V21a1,1,0,0,1,2,0Zm4,0a1,1,0,0,1-2,0V21a1,1,0,0,1,2,0Z" style="fill:#a9a9a9"/></g></g></svg>