<?xml version="1.0" encoding="UTF-8"?><svg id="Layer_2" xmlns="http://www.w3.org/2000/svg" viewBox="0 0 40 40"><defs><style>.cls-1{fill:#4c9dea;}</style></defs><g id="Layer_1-2"><path class="cls-1" d="m17.88,12.22c-2.73,2.73-2.73,7.17,0,9.9s7.17,2.73,9.9,0c2.73-2.73,2.73-7.17,0-9.9s-7.17-2.73-9.9,0Z"/><path class="cls-1" d="m20,0C8.95,0,0,8.95,0,20s8.95,20,20,20,20-8.95,20-20S31.05,0,20,0Zm10.61,24.95c-3.81,3.81-9.71,4.23-13.99,1.29l-6.15,6.15-2.83-2.83,6.14-6.14c-2.97-4.29-2.55-10.21,1.27-14.02,4.3-4.3,11.26-4.3,15.56,0,4.3,4.3,4.3,11.26,0,15.56Z"/></g></svg>