<svg xmlns="http://www.w3.org/2000/svg" viewBox="0 0 40 40"><g id="Layer_2" data-name="Layer 2"><g id="Layer_1-2" data-name="Layer 1"><rect x="13" y="9" width="14" height="2" style="fill:#082f44"/><path d="M20,0A20,20,0,1,0,40,20,20,20,0,0,0,20,0ZM30,30.32A1.68,1.68,0,0,1,28.32,32H11.68A1.68,1.68,0,0,1,10,30.32V18H30ZM33,16H7V12H9V11h2V8l1-1H28l1,1v3h2v1h2Z" style="fill:#082f44"/><path d="M18,30a1,1,0,0,0,1-1V21a1,1,0,0,0-2,0v8A1,1,0,0,0,18,30Z" style="fill:#082f44"/><path d="M26,30a1,1,0,0,0,1-1V21a1,1,0,0,0-2,0v8A1,1,0,0,0,26,30Z" style="fill:#082f44"/><path d="M22,30a1,1,0,0,0,1-1V21a1,1,0,0,0-2,0v8A1,1,0,0,0,22,30Z" style="fill:#082f44"/><path d="M14,30a1,1,0,0,0,1-1V21a1,1,0,0,0-2,0v8A1,1,0,0,0,14,30Z" style="fill:#082f44"/></g></g></svg>