<?xml version="1.0" encoding="UTF-8"?><svg id="Layer_2" xmlns="http://www.w3.org/2000/svg" viewBox="0 0 160.98 126"><defs><style>.cls-1,.cls-2,.cls-3{fill:none;}.cls-4{stroke:#fff;stroke-width:9.65px;}.cls-4,.cls-5,.cls-6,.cls-7,.cls-2,.cls-3,.cls-8{stroke-linejoin:round;}.cls-4,.cls-9,.cls-7{fill:#fff;}.cls-4,.cls-6,.cls-7,.cls-2,.cls-3{stroke-linecap:round;}.cls-5{fill:#2fc61e;stroke:#2fc61e;stroke-width:3.22px;}.cls-6{fill:#d8d3ce;}.cls-6,.cls-7,.cls-2{stroke:#a09892;}.cls-6,.cls-7,.cls-2,.cls-3,.cls-8{stroke-width:2px;}.cls-3,.cls-8{stroke:#4c9dea;}.cls-8{fill:#8ec1f2;}</style></defs><g id="Layer_1-2"><rect class="cls-1" width="160.98" height="126"/><g><g><rect class="cls-7" x="42.45" y="30.33" width="61.82" height="78.26"/><g><line class="cls-2" x1="56.79" y1="45.98" x2="89.93" y2="45.98"/><line class="cls-2" x1="56.79" y1="61.63" x2="89.93" y2="61.63"/><line class="cls-2" x1="56.79" y1="77.28" x2="89.93" y2="77.28"/><line class="cls-2" x1="56.79" y1="92.93" x2="89.93" y2="92.93"/></g><g><g><g><path class="cls-9" d="m92.42,88.57c-.62,0-1.23-.23-1.71-.71l-8.83-8.83c-.45-.45-.71-1.07-.71-1.7s.25-1.25.71-1.71l41.2-41.2c.47-.47,1.09-.71,1.71-.71s1.23.23,1.7.71l8.83,8.83c.45.45.71,1.07.71,1.71s-.25,1.25-.71,1.7l-41.21,41.2c-.47.47-1.09.71-1.7.71Z"/><path class="cls-9" d="m124.79,36.12l8.83,8.83-41.2,41.2-8.83-8.83,41.2-41.2m0-4.82c-1.28,0-2.51.51-3.41,1.41l-41.2,41.2c-1.88,1.88-1.88,4.94,0,6.82l8.83,8.83c.9.91,2.13,1.41,3.41,1.41s2.51-.51,3.41-1.41l41.2-41.2c1.88-1.88,1.88-4.94,0-6.82l-8.83-8.83c-.9-.9-2.13-1.41-3.41-1.41h0Z"/></g><g><path class="cls-9" d="m77.05,95.11c-.63,0-1.24-.24-1.7-.71-.7-.69-.9-1.74-.52-2.65l6.54-15.37c.31-.74.98-1.27,1.76-1.42.15-.03.31-.04.46-.04.63,0,1.25.25,1.71.71l8.83,8.83c.57.57.81,1.38.66,2.17-.15.79-.69,1.44-1.42,1.76l-15.37,6.54c-.3.13-.63.19-.95.19Z"/><path class="cls-9" d="m83.59,77.33l8.83,8.83-15.37,6.54,6.54-15.37m0-4.82c-.31,0-.61.03-.92.09-1.57.31-2.89,1.37-3.52,2.85l-6.54,15.37c-.77,1.81-.36,3.91,1.03,5.3.92.92,2.16,1.41,3.41,1.41.64,0,1.28-.13,1.89-.39l15.37-6.54c1.48-.63,2.54-1.95,2.85-3.52.31-1.57-.19-3.2-1.32-4.33l-8.83-8.83c-.91-.91-2.14-1.41-3.41-1.41h0Z"/></g></g><g><polygon class="cls-8" points="118.17 42.75 83.59 77.33 92.42 86.16 127 51.58 127 51.58 118.17 42.75"/><polygon class="cls-6" points="124.79 36.12 118.17 42.75 127 51.58 127 51.58 133.62 44.95 124.79 36.12"/></g><polygon class="cls-3" points="77.05 92.7 92.42 86.16 83.59 77.33 77.05 92.7"/></g><polygon class="cls-9" points="94.11 89.68 81.49 94.8 81.02 98.97 94.83 98.97 94.11 89.68"/></g><path class="cls-4" d="m42.45,44.47l-10.87,7.94c-.94.68-2.2-.23-1.84-1.34l4.19-12.79-10.91-7.89c-.94-.68-.46-2.16.7-2.16l13.46.03,4.13-12.81c.36-1.1,1.92-1.1,2.27,0l4.13,12.81,13.46-.03c1.16,0,1.64,1.48.7,2.16l-10.91,7.89,4.19,12.79c.36,1.1-.9,2.02-1.84,1.34l-10.87-7.94Z"/><path class="cls-5" d="m42.45,44.47l-10.87,7.94c-.94.68-2.2-.23-1.84-1.34l4.19-12.79-10.91-7.89c-.94-.68-.46-2.16.7-2.16l13.46.03,4.13-12.81c.36-1.1,1.92-1.1,2.27,0l4.13,12.81,13.46-.03c1.16,0,1.64,1.48.7,2.16l-10.91,7.89,4.19,12.79c.36,1.1-.9,2.02-1.84,1.34l-10.87-7.94Z"/></g></g></svg>