<?xml version="1.0" encoding="UTF-8"?><svg id="Layer_2" xmlns="http://www.w3.org/2000/svg" viewBox="0 0 160.98 126"><defs><style>.cls-1,.cls-2,.cls-3,.cls-4,.cls-5{fill:none;}.cls-6,.cls-7,.cls-8,.cls-9,.cls-10,.cls-2,.cls-3,.cls-4,.cls-11,.cls-5{stroke-linejoin:round;}.cls-6,.cls-8,.cls-9,.cls-10,.cls-2,.cls-3,.cls-4{stroke-linecap:round;}.cls-6,.cls-10,.cls-12{fill:#fff;}.cls-6,.cls-12{stroke:#fff;stroke-width:9.65px;}.cls-7{fill:#2fc61e;stroke:#2fc61e;stroke-width:3.22px;}.cls-13{fill:#d6d2ce;}.cls-8{fill:#d8d3ce;stroke:#a09892;}.cls-8,.cls-9,.cls-10,.cls-2,.cls-3,.cls-4,.cls-11,.cls-5{stroke-width:2px;}.cls-9,.cls-3,.cls-11,.cls-5{stroke:#4c9dea;}.cls-9,.cls-11{fill:#8ec1f2;}.cls-10,.cls-4{stroke:#a4aab1;}.cls-2{stroke:#655e56;}.cls-12{stroke-linecap:square;stroke-linejoin:bevel;}</style></defs><g id="Layer_1-2"><rect class="cls-1" width="160.98" height="126"/><g><g><line class="cls-2" x1="71.65" y1="76.57" x2="71.65" y2="88.43"/><g><line class="cls-2" x1="85.66" y1="88.43" x2="57.64" y2="88.43"/><g><rect class="cls-13" x="30.2" y="17.41" width="82.91" height="59.16" rx="7.29" ry="7.29"/><rect class="cls-4" x="30.2" y="17.41" width="82.91" height="59.16" rx="7.29" ry="7.29"/></g></g></g><path class="cls-10" d="m113.11,24.71c0-4.01-3.28-7.29-7.29-7.29H37.49c-4.01,0-7.29,3.28-7.29,7.29v41.62h82.91V24.71Z"/><g><g><path class="cls-3" d="m76.28,43.31c0,2.56-2.07,4.63-4.63,4.63s-4.63-2.07-4.63-4.63,2.07-4.63,4.63-4.63,4.63,2.07,4.63,4.63Z"/><path class="cls-3" d="m81.4,43.31c0,2.56-1.15,4.63-2.56,4.63s-2.56-2.07-2.56-4.63"/><path class="cls-3" d="m75.45,52.29c-1.17.49-2.45.77-3.79.77s-2.63-.27-3.79-.77c-1.17-.49-2.22-1.21-3.1-2.09-.88-.88-1.6-1.93-2.09-3.1-.49-1.17-.77-2.45-.77-3.79s.27-2.63.77-3.79c.49-1.17,1.21-2.22,2.09-3.1.88-.88,1.93-1.6,3.1-2.09,1.17-.49,2.45-.77,3.79-.77s2.63.27,3.79.77c1.17.49,2.22,1.21,3.1,2.09.88.88,1.6,1.93,2.09,3.1.49,1.17.77,2.45.77,3.79"/></g><g><g><circle class="cls-6" cx="106.64" cy="58.16" r="11.51"/><path class="cls-12" d="m130.78,108.59v-22.93c0-5.15-4.18-9.33-9.33-9.33h-29.62c-5.15,0-9.33,4.18-9.33,9.33v22.93"/><circle class="cls-9" cx="106.64" cy="58.16" r="11.51"/><path class="cls-11" d="m130.78,108.59v-22.93c0-5.15-4.18-9.33-9.33-9.33h-29.62c-5.15,0-9.33,4.18-9.33,9.33v22.93"/><line class="cls-3" x1="93.42" y1="91.25" x2="93.42" y2="101.39"/><line class="cls-3" x1="119.85" y1="101.39" x2="119.85" y2="91.25"/></g><line class="cls-5" x1="93.42" y1="94.6" x2="93.42" y2="108.59"/><line class="cls-5" x1="119.85" y1="108.59" x2="119.85" y2="94.6"/></g></g><rect class="cls-8" x="39" y="27.4" width="6" height="6"/><rect class="cls-8" x="39" y="40.04" width="6" height="6"/><rect class="cls-7" x="39" y="52.68" width="6" height="6"/></g></g></svg>