<svg xmlns="http://www.w3.org/2000/svg" viewBox="0 0 70 70"><g id="Layer_2" data-name="Layer 2"><g id="Layer_1-2" data-name="Layer 1"><path d="M35,0A35,35,0,1,0,70,35,35,35,0,0,0,35,0ZM61.75,39.9h-13a2.1,2.1,0,0,1-2-1.59l-3.74-15L35.83,46.81a2.1,2.1,0,0,1-1.94,1.49h-.07a2.1,2.1,0,0,1-2-1.35l-5.51-14.5L24,38.56A2.09,2.09,0,0,1,22,39.9H8a2.1,2.1,0,1,1,0-4.2H20.57l3.84-9.86a2.11,2.11,0,0,1,2-1.34h0a2.08,2.08,0,0,1,1.95,1.35l5.26,13.84,7.53-24.9a2.13,2.13,0,0,1,2.06-1.49,2.09,2.09,0,0,1,2,1.59L50.36,35.7H61.75a2.1,2.1,0,1,1,0,4.2Z" style="fill:#c1ccd3"/></g></g></svg>