<?xml version="1.0" encoding="UTF-8"?><svg xmlns="http://www.w3.org/2000/svg" viewBox="0 0 40 35.69"><g id="a"/><g id="b"><g id="c"><path d="M39.46,29.74L23.43,1.98c-1.53-2.64-5.34-2.64-6.87,0L.54,29.74c-1.53,2.64,.38,5.95,3.43,5.95H36.03c3.05,0,4.96-3.3,3.43-5.95Zm-19.46,2.25c-1.66,0-3-1.34-3-3s1.34-3,3-3,3,1.34,3,3-1.34,3-3,3Zm1.98-8.83c-.09,1.02-.94,1.83-1.98,1.83s-1.9-.81-1.98-1.83c0,0-1.02-13.01-1.02-13.17,0-1.66,1.34-3,3-3s3,1.34,3,3c0,.16-1.02,13.17-1.02,13.17Z" style="fill:#ed1c24;"/></g></g></svg>