<?xml version="1.0" encoding="UTF-8"?>
<svg id="b" data-name="Layer 2" xmlns="http://www.w3.org/2000/svg" width="40" height="40" viewBox="0 0 40 40">
  <g id="c" data-name="Core Icons">
    <path d="m17.879,12.222c-2.729,2.729-2.729,7.17,0,9.9s7.17,2.729,9.899,0c2.729-2.729,2.729-7.17,0-9.9s-7.17-2.729-9.899,0Z" fill="#082f44" stroke-width="0"/>
    <path d="m20,0C8.954,0,0,8.954,0,20s8.954,20,20,20,20-8.954,20-20S31.046,0,20,0Zm10.607,24.95c-3.807,3.807-9.706,4.233-13.99,1.292l-6.147,6.147-2.828-2.828,6.143-6.143c-2.967-4.287-2.55-10.207,1.267-14.025,4.296-4.296,11.261-4.296,15.556,0,4.296,4.296,4.296,11.261,0,15.556Z" fill="#082f44" stroke-width="0"/>
  </g>
</svg>