<?xml version="1.0" encoding="UTF-8"?>
<svg id="b" data-name="Layer 2" xmlns="http://www.w3.org/2000/svg" width="40" height="40" viewBox="0 0 40 40">
  <g id="c" data-name="Core Icons">
    <path d="m40,20c0,11.046-8.954,20-20,20S0,31.046,0,20,8.954,0,20,0s20,8.954,20,20ZM18.979,5.702l-3.072,8-8.474.393c-.999.046-1.417,1.297-.647,1.935l6.592,5.457-2.17,8.133c-.257.962.801,1.738,1.642,1.206l7.151-4.527,7.151,4.527c.841.532,1.898-.244,1.642-1.206l-2.17-8.133,6.592-5.457c.77-.637.352-1.889-.647-1.935l-8.474-.393-3.072-8c-.359-.935-1.683-.935-2.042,0Z" fill="#082f44" stroke-width="0"/>
  </g>
</svg>