<?xml version="1.0" encoding="UTF-8"?>
<svg id="b" data-name="Layer 2" xmlns="http://www.w3.org/2000/svg" width="40" height="40" viewBox="0 0 40 40">
  <g id="c" data-name="Core Icons">
    <path d="m20,0C8.954,0,0,8.954,0,20s8.954,20,20,20,20-8.954,20-20S31.046,0,20,0Z" fill="#ececec" stroke-width="0"/>
    <path d="m31,12v-1h-2v-3l-1-1H12l-1,1v3h-2v1h-2v4h26v-4h-2Zm-18-3h14v2h-14v-2Z" fill="#a9a9a9" stroke-width="0"/>
    <path d="m10,18v12.323c0,.926.751,1.677,1.677,1.677h16.646c.926,0,1.677-.751,1.677-1.677v-12.323H10Zm5,11c0,.55-.45,1-1,1s-1-.45-1-1v-8c0-.55.45-1,1-1s1,.45,1,1v8Zm4,0c0,.55-.45,1-1,1s-1-.45-1-1v-8c0-.55.45-1,1-1s1,.45,1,1v8Zm4,0c0,.55-.45,1-1,1s-1-.45-1-1v-8c0-.55.45-1,1-1s1,.45,1,1v8Zm4,0c0,.55-.45,1-1,1s-1-.45-1-1v-8c0-.55.45-1,1-1s1,.45,1,1v8Z" fill="#a9a9a9" stroke-width="0"/>
  </g>
</svg>